<?xml version="1.0" encoding="UTF-8" standalone="no"?>
<svg width="20px" height="20px" viewBox="0 0 20 20" version="1.1" xmlns="http://www.w3.org/2000/svg" xmlns:xlink="http://www.w3.org/1999/xlink">
    <!-- Generator: sketchtool 40.3 (33839) - http://www.bohemiancoding.com/sketch -->
    <title>A24B28D6-2878-4442-A279-B10CA25FF895</title>
    <desc>Created with sketchtool.</desc>
    <defs>
        <circle id="path-1" cx="10" cy="10" r="10"></circle>
        <polygon id="path-3" points="10.0414083 10.9511321 10.0414083 1.35051433 4.26253713 1.35051433 4.26253713 10.9511321"></polygon>
    </defs>
    <g id="Embedded-Player" stroke="none" stroke-width="1" fill="none" fill-rule="evenodd">
        <g id="playlist-embed/345px-square" transform="translate(-16.000000, -360.000000)">
            <g id="description+episodes" transform="translate(0.000000, 345.000000)">
                <g id="why-you-should-listen" transform="translate(15.000000, 15.000000)">
                    <g id="rp-avatar" transform="translate(1.000000, 0.000000)">
                        <mask id="mask-2" fill="white">
                            <use xlink:href="#path-1"></use>
                        </mask>
                        <use id="Oval-1" fill="#CE262F" xlink:href="#path-1"></use>
                        <g id="logo/small-red" mask="url(#mask-2)">
                            <g transform="translate(5.000000, 4.510251)">
                                <mask id="mask-4" fill="white">
                                    <use xlink:href="#path-3"></use>
                                </mask>
                                <g id="Clip-2" stroke="none" fill="none"></g>
                                <path d="M10.0414647,10.6891291 C8.11521818,9.78152396 6.18897165,11.5967342 4.26253713,10.6891291 L4.26253713,1.61251735 C6.18878367,2.52012247 8.1150302,0.704912243 10.0414647,1.61251735 L10.0414647,10.6891291" id="Fill-1" stroke="none" fill="#FFFFFF" fill-rule="evenodd"></path>
                                <path d="M6.91585855,5.82167855 C6.98259199,5.80635558 7.04913744,5.79065889 7.11587088,5.7749622 C7.36400647,5.71647334 7.38769214,5.56025389 7.3880681,5.37712583 L7.3880681,4.39066353 C7.3880681,4.17614208 7.36419445,4.04589692 7.11587088,4.10438578 C7.04913744,4.12008247 6.98259199,4.13577916 6.91585855,4.15110212 L6.91585855,5.82167855 Z M6.91585855,6.78422208 L6.91585855,9.15479619 C6.56113744,9.23664322 6.20641633,9.31101564 5.85150724,9.34371708 L5.85150724,3.42531701 C6.35567365,3.37878754 6.85984006,3.24816864 7.36400647,3.13137778 C8.26819753,2.92320976 8.45993867,3.38233798 8.46031464,4.1053201 L8.46031464,5.29060716 C8.46050262,6.0259224 8.16461972,6.49345956 7.42002496,6.66631003 C7.25196949,6.70480429 7.08391402,6.74535408 6.91585855,6.78422208 L6.91585855,6.78422208 Z" id="Fill-4" stroke="none" fill="#CE262F" fill-rule="evenodd"></path>
                                <path d="M5.85725948,9.34891193 C5.85725948,9.34891193 5.76778028,9.85326157 4.26242435,10.6891104 L4.26242435,5.78557616 L5.85725948,9.34891193 Z" id="Fill-6" stroke="none" fill="#CCCCCC" fill-rule="evenodd"></path>
                                <path d="M5.8519396,9.33863434 C3.90125547,8.43102923 1.95075932,10.2462395 7.51926036e-05,9.33863434 L7.51926036e-05,0.262022625 C1.95075932,1.16962774 3.90125547,-0.645582487 5.8519396,0.262022625 L5.8519396,9.33863434 Z" id="Fill-8" stroke="none" fill="#FFFFFF" fill-rule="evenodd"></path>
                                <path d="M2.67493929,4.29883788 C2.74430447,4.28314119 2.81366965,4.2668839 2.88303482,4.25081348 C3.0988376,4.20035983 3.17929368,4.10281611 3.17891772,3.8243867 L3.17891772,3.02105247 C3.1791057,2.76654183 3.13117042,2.69758851 2.91499168,2.7478553 C2.83491156,2.76654183 2.75501941,2.78522837 2.67493929,2.80335431 L2.67493929,4.29883788 M2.67493929,7.80686151 C2.32021818,7.88758735 1.96549707,7.96065171 1.61058798,7.99316629 L1.61058798,2.07476623 C2.17077288,2.02337825 2.73095778,1.87126984 3.29114268,1.74700436 C3.93949091,1.60068878 4.26714268,1.93592525 4.26733066,2.57052006 L4.26733066,3.51699317 C4.26770663,4.00882283 3.99532142,4.25043975 3.79530909,4.37470522 C3.96336456,4.40684607 4.2517282,4.57446431 4.25135223,5.01397166 L4.25135223,7.02651172 C4.25135223,7.28102235 4.29891156,7.38828308 4.33932758,7.45704953 L4.33932758,7.49685186 C3.98460647,7.52170495 3.62988536,7.58991081 3.27516425,7.66895487 C3.21933374,7.61756689 3.1791057,7.49946797 3.17891772,7.23710899 L3.17891772,5.51084669 C3.17854176,5.23279101 3.11500401,5.17523648 2.89901325,5.22550326 C2.82438459,5.24288174 2.74956795,5.26026022 2.67493929,5.27726497 L2.67493929,7.80686151" id="Fill-10" stroke="none" fill="#CE262F" fill-rule="evenodd"></path>
                            </g>
                        </g>
                    </g>
                </g>
            </g>
        </g>
    </g>
</svg>